<svg width="30" height="30" viewBox="0 0 30 30" fill="none" xmlns="http://www.w3.org/2000/svg">
<path d="M25.9739 16.4008L25.9344 16.6892L26.1656 16.8659L29.3943 19.3347L29.4004 19.3394L29.4067 19.3439C29.4907 19.4041 29.5301 19.5077 29.4571 19.6416L26.3768 24.8226L26.3767 24.8225L26.3705 24.8336C26.3083 24.9444 26.1747 25.0003 26.0317 24.9526L22.2017 23.4562L21.9415 23.3545L21.7186 23.5227C20.9649 24.0913 20.1366 24.5684 19.2335 24.9257L18.9644 25.0322L18.9227 25.3185L18.3444 29.2873L18.3443 29.2873L18.3432 29.2956C18.3295 29.4024 18.2376 29.5 18.0842 29.5H11.9158C11.7866 29.5 11.6745 29.4206 11.6367 29.2677L11.0613 25.3185L11.0196 25.0322L10.7505 24.9257C9.84988 24.5694 9.03621 24.0925 8.26146 23.5198L8.03944 23.3557L7.78227 23.4562L3.96294 24.9484C3.7946 24.9948 3.6668 24.9287 3.61345 24.8336L3.61359 24.8335L3.60712 24.8226L0.52657 19.6412C0.472137 19.5406 0.504911 19.3988 0.587598 19.3362L0.587733 19.3361L3.8486 16.8674L4.09095 16.6839L4.03962 16.3843C3.96535 15.9509 3.93436 15.4648 3.93436 15C3.93436 14.5557 3.99368 14.0713 4.07174 13.6157L4.12308 13.3161L3.88073 13.1326L0.61986 10.6639L0.609846 10.6563L0.599464 10.6492C0.550062 10.6156 0.52802 10.5754 0.520211 10.5341C0.511768 10.4894 0.517944 10.4283 0.556145 10.3631C0.556232 10.3629 0.55632 10.3628 0.556408 10.3626L3.62377 5.17641L3.62388 5.17648L3.62952 5.16643C3.69169 5.05555 3.82533 4.99967 3.96838 5.04743L7.79834 6.54384L8.05457 6.64395L8.27628 6.4811C9.03708 5.9223 9.86711 5.43018 10.7665 5.0743L11.0356 4.96783L11.0773 4.68147L11.6545 0.720254C11.6801 0.582404 11.7813 0.5 11.9158 0.5H18.0842C18.2313 0.5 18.3379 0.594632 18.3616 0.720444L18.9387 4.68147L18.9804 4.96783L19.2495 5.0743C20.1501 5.43065 20.9638 5.90745 21.7385 6.48019L21.9606 6.64432L22.2177 6.54384L26.0371 5.05159C26.2054 5.00518 26.3332 5.0713 26.3866 5.16643L26.3864 5.16651L26.3929 5.1774L29.4734 10.3588C29.5279 10.4594 29.4951 10.6012 29.4124 10.6638L29.4123 10.6639L26.1514 13.1326L25.909 13.3161L25.9604 13.6157C26.0347 14.0495 26.0656 14.5201 26.0656 15C26.0656 15.4945 26.0349 15.9562 25.9739 16.4008ZM8.71718 15C8.71718 18.3828 11.5564 21.125 15 21.125C18.4436 21.125 21.2828 18.3828 21.2828 15C21.2828 11.6172 18.4436 8.875 15 8.875C11.5564 8.875 8.71718 11.6172 8.71718 15Z" stroke="white" stroke-opacity="0.6"/>
</svg>
