<svg width="40" height="40" viewBox="0 0 40 40" fill="none" xmlns="http://www.w3.org/2000/svg">
<path d="M34.8957 27.5598L14.375 38.6602L5.10428 23.732L12.5001 19.8778L5.10428 16.2679L14.0625 1.14832C22.4425 5.59543 26.3074 7.70598 34.6874 12.1531L34.8957 27.5598Z" fill="#E50914"/>
<path d="M40 19.9043C40 24.6608 35.8027 28.5167 30.6251 28.5167C25.4475 28.5167 21.2502 24.6608 21.2502 19.9043C21.2502 15.1478 25.4475 11.2919 30.6251 11.2919C35.8027 11.2919 40 15.1478 40 19.9043Z" fill="#E50914"/>
<path d="M18.7499 8.61243C18.7499 13.369 14.5526 17.2249 9.37493 17.2249C4.1973 17.2249 0 13.369 0 8.61243C0 3.85592 4.1973 0 9.37493 0C14.5526 0 18.7499 3.85592 18.7499 8.61243Z" fill="#E50914"/>
<path d="M18.7499 31.3876C18.7499 36.1441 14.5526 40 9.37493 40C4.1973 40 0 36.1441 0 31.3876C0 26.6311 4.1973 22.7751 9.37493 22.7751C14.5526 22.7751 18.7499 26.6311 18.7499 31.3876Z" fill="#E50914"/>
<path d="M21.875 25.4545L12.5001 19.9043L5.10428 23.732L14.375 38.6603L22.5 34.2584C24.3747 32.9466 26.7676 28.9584 21.875 25.4545Z" fill="url(#paint0_linear_132_11)"/>
<defs>
<linearGradient id="paint0_linear_132_11" x1="24.7916" y1="23.1579" x2="7.24138" y2="32.9828" gradientUnits="userSpaceOnUse">
<stop stop-color="#B1060F"/>
<stop offset="1" stop-color="#E50914" stop-opacity="0"/>
</linearGradient>
</defs>
</svg>
