<svg width="192" height="209" viewBox="0 0 192 209" fill="none" xmlns="http://www.w3.org/2000/svg">
<path d="M167.5 144L69 202L24.5 124L60 103.862L24.5 85L67.5 6C107.724 29.2362 126.276 40.2638 166.5 63.5L167.5 144Z" fill="#E50914"/>
<path d="M192 104C192 128.853 171.853 149 147 149C122.147 149 102 128.853 102 104C102 79.1472 122.147 59 147 59C171.853 59 192 79.1472 192 104Z" fill="#E50914"/>
<path d="M90 45C90 69.8528 69.8528 90 45 90C20.1472 90 0 69.8528 0 45C0 20.1472 20.1472 0 45 0C69.8528 0 90 20.1472 90 45Z" fill="#E50914"/>
<path d="M90 164C90 188.853 69.8528 209 45 209C20.1472 209 0 188.853 0 164C0 139.147 20.1472 119 45 119C69.8528 119 90 139.147 90 164Z" fill="#E50914"/>
<path d="M105 133L60 104L24.5 124L69 202L108 179C116.999 172.146 128.485 151.308 105 133Z" fill="url(#paint0_linear_127_179)"/>
<defs>
<linearGradient id="paint0_linear_127_179" x1="119" y1="121" x2="31.5" y2="166" gradientUnits="userSpaceOnUse">
<stop stop-color="#B1060F"/>
<stop offset="1" stop-color="#E50914" stop-opacity="0"/>
</linearGradient>
</defs>
</svg>
